M48
METRIC,LZ,000.000
;FILE_FORMAT=3:3
;TYPE=PLATED
;Layer: PTH_Through
;EasyEDA v6.5.47, 2024-11-15 19:46:41
;afbadec8b0bd41c99859eff7e483f8c8,fd2acee0f29b4e2aa60f5f2c6615e4e3,10
;Gerber Generator version 0.2
;Holesize 1 = 0.901 mm
T01C0.901
;Holesize 2 = 0.915 mm
T02C0.915
;Holesize 3 = 1.200 mm
T03C1.200
%
G05
G90
T01
X027305Y-002921
X022860Y-003048
X029892Y001270
X032392Y001270
X027392Y001270
X024892Y001270
T02
X-000007Y-001280
X-006587Y003394
X000017Y003394
T03
X022109Y-030036
X022109Y-032576
X005944Y-032576
X005944Y-030036
X022109Y-035116
X005944Y-037656
X005944Y-035116
X022109Y-027496
X005944Y-027496
X022109Y-022416
X022109Y-024956
X005944Y-024956
X005944Y-022416
X022109Y-037656
M30
