G04 Layer: TopSilkscreenLayer*
G04 EasyEDA v6.5.47, 2024-11-15 19:46:41*
G04 afbadec8b0bd41c99859eff7e483f8c8,fd2acee0f29b4e2aa60f5f2c6615e4e3,10*
G04 Gerber Generator version 0.2*
G04 Scale: 100 percent, Rotated: No, Reflected: No *
G04 Dimensions in millimeters *
G04 leading zeros omitted , absolute positions ,4 integer and 5 decimal *
%FSLAX45Y45*%
%MOMM*%

%ADD10C,0.2500*%
%ADD11C,0.2000*%
%ADD12C,0.1000*%
%ADD13C,0.2540*%

%LPD*%
G36*
X357479Y-479450D02*
G01*
X351790Y-479755D01*
X346456Y-480618D01*
X341426Y-481990D01*
X336753Y-483870D01*
X332536Y-486257D01*
X328726Y-489051D01*
X325374Y-492251D01*
X322580Y-495858D01*
X320344Y-499821D01*
X318668Y-504088D01*
X317652Y-508660D01*
X317347Y-513486D01*
X317957Y-520141D01*
X319735Y-525983D01*
X322478Y-530961D01*
X325932Y-535228D01*
X330047Y-538835D01*
X334467Y-541883D01*
X339090Y-544423D01*
X362559Y-554888D01*
X371297Y-559003D01*
X375056Y-561238D01*
X378358Y-563727D01*
X381101Y-566623D01*
X383133Y-570026D01*
X384454Y-574141D01*
X384911Y-579018D01*
X384403Y-583793D01*
X382879Y-588060D01*
X380492Y-591870D01*
X377190Y-595172D01*
X373075Y-597763D01*
X368147Y-599744D01*
X362508Y-600964D01*
X356209Y-601370D01*
X350977Y-601065D01*
X345948Y-600202D01*
X341020Y-598830D01*
X336296Y-596950D01*
X331825Y-594563D01*
X327558Y-591718D01*
X323545Y-588467D01*
X319836Y-584860D01*
X310997Y-595020D01*
X315366Y-599287D01*
X320141Y-603097D01*
X325272Y-606399D01*
X330809Y-609142D01*
X336600Y-611378D01*
X342747Y-613003D01*
X349199Y-613968D01*
X355904Y-614324D01*
X362458Y-614019D01*
X368554Y-613054D01*
X374142Y-611530D01*
X379272Y-609447D01*
X383895Y-606856D01*
X388010Y-603808D01*
X391515Y-600303D01*
X394462Y-596442D01*
X396798Y-592226D01*
X398475Y-587756D01*
X399542Y-582980D01*
X399897Y-578002D01*
X399338Y-571144D01*
X397713Y-565200D01*
X395224Y-560070D01*
X391922Y-555599D01*
X387858Y-551789D01*
X383286Y-548487D01*
X378155Y-545541D01*
X372719Y-542950D01*
X353872Y-535076D01*
X346354Y-531622D01*
X339394Y-527202D01*
X334264Y-521055D01*
X332333Y-512470D01*
X332740Y-508101D01*
X334111Y-504240D01*
X336245Y-500837D01*
X339191Y-497992D01*
X342798Y-495706D01*
X347116Y-494030D01*
X351993Y-493014D01*
X357479Y-492658D01*
X366268Y-493522D01*
X374142Y-496011D01*
X381152Y-499922D01*
X387451Y-505104D01*
X395325Y-495452D01*
X391769Y-492048D01*
X387858Y-489000D01*
X383590Y-486257D01*
X378968Y-483920D01*
X373989Y-482041D01*
X368757Y-480618D01*
X363220Y-479755D01*
G37*
G36*
X1029817Y-479450D02*
G01*
X1024128Y-479755D01*
X1018794Y-480618D01*
X1013714Y-481990D01*
X1009040Y-483870D01*
X1004773Y-486257D01*
X1000912Y-489051D01*
X997559Y-492251D01*
X994765Y-495858D01*
X992479Y-499821D01*
X990803Y-504088D01*
X989736Y-508660D01*
X989431Y-513486D01*
X990041Y-520141D01*
X991869Y-525983D01*
X994613Y-530961D01*
X998169Y-535228D01*
X1002284Y-538835D01*
X1006754Y-541883D01*
X1011428Y-544423D01*
X1034897Y-554888D01*
X1043584Y-559003D01*
X1047343Y-561238D01*
X1050594Y-563727D01*
X1053236Y-566623D01*
X1055268Y-570026D01*
X1056538Y-574141D01*
X1056995Y-579018D01*
X1056487Y-583793D01*
X1055014Y-588060D01*
X1052677Y-591870D01*
X1049426Y-595172D01*
X1045311Y-597763D01*
X1040485Y-599744D01*
X1034846Y-600964D01*
X1028547Y-601370D01*
X1023315Y-601065D01*
X1018235Y-600202D01*
X1013307Y-598830D01*
X1008532Y-596950D01*
X1003960Y-594563D01*
X999642Y-591718D01*
X995629Y-588467D01*
X991920Y-584860D01*
X983081Y-595020D01*
X987450Y-599287D01*
X992225Y-603097D01*
X997407Y-606399D01*
X1002893Y-609142D01*
X1008786Y-611378D01*
X1014933Y-613003D01*
X1021435Y-613968D01*
X1028293Y-614324D01*
X1034796Y-614019D01*
X1040841Y-613054D01*
X1046429Y-611530D01*
X1051560Y-609447D01*
X1056132Y-606856D01*
X1060196Y-603808D01*
X1063701Y-600303D01*
X1066596Y-596442D01*
X1068933Y-592226D01*
X1070610Y-587756D01*
X1071626Y-582980D01*
X1071981Y-578002D01*
X1071422Y-571144D01*
X1069848Y-565200D01*
X1067409Y-560070D01*
X1064107Y-555599D01*
X1060145Y-551789D01*
X1055573Y-548487D01*
X1050493Y-545541D01*
X1045057Y-542950D01*
X1026261Y-535076D01*
X1018540Y-531622D01*
X1011529Y-527202D01*
X1006398Y-521055D01*
X1004417Y-512470D01*
X1004874Y-508101D01*
X1006195Y-504240D01*
X1008430Y-500837D01*
X1011377Y-497992D01*
X1015034Y-495706D01*
X1019403Y-494030D01*
X1024331Y-493014D01*
X1029817Y-492658D01*
X1038606Y-493522D01*
X1046378Y-496011D01*
X1053388Y-499922D01*
X1059738Y-505104D01*
X1067663Y-495452D01*
X1064107Y-492048D01*
X1060145Y-489000D01*
X1055827Y-486257D01*
X1051204Y-483920D01*
X1046226Y-482041D01*
X1040993Y-480618D01*
X1035507Y-479755D01*
G37*
G36*
X1147419Y-479450D02*
G01*
X1141374Y-479755D01*
X1135532Y-480618D01*
X1129944Y-482092D01*
X1124661Y-484124D01*
X1119632Y-486664D01*
X1114907Y-489762D01*
X1110538Y-493369D01*
X1106525Y-497535D01*
X1102918Y-502107D01*
X1099667Y-507238D01*
X1096924Y-512775D01*
X1094587Y-518769D01*
X1092708Y-525221D01*
X1091336Y-532079D01*
X1090523Y-539343D01*
X1090269Y-547014D01*
X1090523Y-554736D01*
X1091336Y-562000D01*
X1092657Y-568858D01*
X1094486Y-575310D01*
X1096772Y-581304D01*
X1099515Y-586841D01*
X1102664Y-591921D01*
X1106220Y-596493D01*
X1110132Y-600557D01*
X1114450Y-604164D01*
X1119073Y-607212D01*
X1124000Y-609752D01*
X1129233Y-611733D01*
X1134719Y-613156D01*
X1140409Y-614019D01*
X1146352Y-614324D01*
X1152499Y-614019D01*
X1158189Y-613054D01*
X1163624Y-611530D01*
X1168654Y-609447D01*
X1173429Y-606806D01*
X1177899Y-603605D01*
X1182065Y-599948D01*
X1186027Y-595782D01*
X1177899Y-586384D01*
X1171194Y-592785D01*
X1163929Y-597509D01*
X1155954Y-600405D01*
X1147165Y-601370D01*
X1140917Y-600913D01*
X1135126Y-599643D01*
X1129792Y-597560D01*
X1124915Y-594664D01*
X1120546Y-591007D01*
X1116685Y-586587D01*
X1113383Y-581507D01*
X1110589Y-575767D01*
X1108405Y-569315D01*
X1106779Y-562305D01*
X1105814Y-554685D01*
X1105509Y-546506D01*
X1105814Y-538480D01*
X1106830Y-530961D01*
X1108506Y-524052D01*
X1110792Y-517753D01*
X1113637Y-512114D01*
X1117041Y-507085D01*
X1121003Y-502818D01*
X1125423Y-499211D01*
X1130350Y-496417D01*
X1135684Y-494334D01*
X1141476Y-493064D01*
X1147622Y-492658D01*
X1155750Y-493522D01*
X1162913Y-496011D01*
X1169162Y-499922D01*
X1174597Y-505104D01*
X1182725Y-495452D01*
X1179728Y-492455D01*
X1176274Y-489508D01*
X1172464Y-486816D01*
X1168196Y-484378D01*
X1163523Y-482346D01*
X1158494Y-480822D01*
X1153109Y-479806D01*
G37*
G36*
X1360017Y-479450D02*
G01*
X1354531Y-479755D01*
X1349451Y-480618D01*
X1344625Y-481990D01*
X1340104Y-483870D01*
X1335786Y-486156D01*
X1331722Y-488797D01*
X1327861Y-491743D01*
X1324152Y-494944D01*
X1332077Y-504342D01*
X1337970Y-499109D01*
X1344523Y-494995D01*
X1351737Y-492353D01*
X1359509Y-491388D01*
X1364488Y-491794D01*
X1368958Y-492912D01*
X1372870Y-494792D01*
X1376172Y-497281D01*
X1378813Y-500380D01*
X1380744Y-504037D01*
X1381912Y-508152D01*
X1382369Y-512724D01*
X1381912Y-518058D01*
X1380439Y-522985D01*
X1377950Y-527405D01*
X1374241Y-531215D01*
X1369263Y-534314D01*
X1362964Y-536651D01*
X1355140Y-538124D01*
X1345793Y-538632D01*
X1345793Y-550062D01*
X1356207Y-550570D01*
X1364945Y-551992D01*
X1372057Y-554278D01*
X1377696Y-557377D01*
X1381861Y-561238D01*
X1384757Y-565810D01*
X1386382Y-570992D01*
X1386941Y-576732D01*
X1386382Y-582320D01*
X1384909Y-587349D01*
X1382471Y-591667D01*
X1379220Y-595325D01*
X1375257Y-598271D01*
X1370634Y-600354D01*
X1365402Y-601675D01*
X1359763Y-602132D01*
X1354175Y-601827D01*
X1349095Y-600913D01*
X1344472Y-599490D01*
X1340256Y-597611D01*
X1336446Y-595325D01*
X1332890Y-592785D01*
X1329690Y-590042D01*
X1326743Y-587146D01*
X1319377Y-596544D01*
X1322679Y-599948D01*
X1326489Y-603199D01*
X1330756Y-606196D01*
X1335532Y-608888D01*
X1340866Y-611124D01*
X1346809Y-612851D01*
X1353312Y-613918D01*
X1360525Y-614324D01*
X1366113Y-614019D01*
X1371447Y-613206D01*
X1376527Y-611835D01*
X1381252Y-609904D01*
X1385620Y-607517D01*
X1389532Y-604570D01*
X1392936Y-601167D01*
X1395882Y-597306D01*
X1398219Y-592988D01*
X1399946Y-588264D01*
X1401013Y-583082D01*
X1401419Y-577494D01*
X1400810Y-571042D01*
X1399235Y-565200D01*
X1396644Y-559968D01*
X1393291Y-555447D01*
X1389176Y-551535D01*
X1384452Y-548386D01*
X1379270Y-545947D01*
X1373733Y-544220D01*
X1373733Y-543458D01*
X1378712Y-541324D01*
X1383233Y-538632D01*
X1387246Y-535482D01*
X1390650Y-531774D01*
X1393342Y-527558D01*
X1395374Y-522833D01*
X1396644Y-517550D01*
X1397101Y-511708D01*
X1396339Y-504494D01*
X1394307Y-498093D01*
X1390954Y-492556D01*
X1386535Y-487984D01*
X1381099Y-484276D01*
X1374800Y-481634D01*
X1367688Y-480009D01*
G37*
G36*
X425754Y-481990D02*
G01*
X425754Y-612038D01*
X501751Y-612038D01*
X501751Y-599592D01*
X440486Y-599592D01*
X440486Y-549554D01*
X490575Y-549554D01*
X490575Y-537108D01*
X440486Y-537108D01*
X440486Y-494436D01*
X499922Y-494436D01*
X499922Y-481990D01*
G37*
G36*
X529691Y-481990D02*
G01*
X529691Y-612038D01*
X543407Y-612038D01*
X543356Y-535635D01*
X542798Y-520649D01*
X541629Y-501040D01*
X542645Y-501040D01*
X556869Y-527710D01*
X605586Y-612038D01*
X620877Y-612038D01*
X620877Y-481990D01*
X606907Y-481990D01*
X606907Y-557326D01*
X607822Y-577748D01*
X608888Y-592734D01*
X607872Y-592734D01*
X593902Y-566064D01*
X544677Y-481990D01*
G37*
G36*
X658672Y-481990D02*
G01*
X654659Y-542442D01*
X662533Y-547268D01*
X667918Y-544017D01*
X673100Y-541528D01*
X678484Y-539953D01*
X684631Y-539394D01*
X690676Y-539953D01*
X696163Y-541528D01*
X700938Y-544118D01*
X704951Y-547674D01*
X708202Y-552094D01*
X710590Y-557377D01*
X712063Y-563524D01*
X712520Y-570382D01*
X711962Y-577342D01*
X710285Y-583590D01*
X707593Y-589026D01*
X704088Y-593598D01*
X699871Y-597255D01*
X694994Y-599897D01*
X689610Y-601573D01*
X683869Y-602132D01*
X678281Y-601827D01*
X673252Y-600913D01*
X668680Y-599541D01*
X664565Y-597712D01*
X660755Y-595528D01*
X657352Y-593039D01*
X654202Y-590296D01*
X651357Y-587400D01*
X643991Y-597052D01*
X647446Y-600354D01*
X651306Y-603504D01*
X655523Y-606399D01*
X660247Y-609041D01*
X665530Y-611225D01*
X671372Y-612851D01*
X677875Y-613968D01*
X685088Y-614324D01*
X690473Y-613968D01*
X695706Y-613003D01*
X700786Y-611327D01*
X705561Y-609041D01*
X710082Y-606145D01*
X714146Y-602691D01*
X717804Y-598576D01*
X720953Y-593953D01*
X723493Y-588721D01*
X725424Y-582980D01*
X726592Y-576681D01*
X727049Y-569874D01*
X726694Y-563016D01*
X725627Y-556818D01*
X724001Y-551281D01*
X721766Y-546303D01*
X718972Y-541985D01*
X715670Y-538276D01*
X711962Y-535178D01*
X707847Y-532638D01*
X703326Y-530707D01*
X698550Y-529336D01*
X693470Y-528472D01*
X688136Y-528218D01*
X682396Y-528624D01*
X677265Y-529793D01*
X672439Y-531520D01*
X667867Y-533806D01*
X671372Y-494436D01*
X720902Y-494436D01*
X720902Y-481990D01*
G37*
G36*
X756259Y-481990D02*
G01*
X752195Y-542442D01*
X760069Y-547268D01*
X765454Y-544017D01*
X770636Y-541528D01*
X776020Y-539953D01*
X782167Y-539394D01*
X788212Y-539953D01*
X793699Y-541528D01*
X798474Y-544118D01*
X802487Y-547674D01*
X805738Y-552094D01*
X808126Y-557377D01*
X809599Y-563524D01*
X810107Y-570382D01*
X809498Y-577342D01*
X807821Y-583590D01*
X805129Y-589026D01*
X801624Y-593598D01*
X797407Y-597255D01*
X792530Y-599897D01*
X787146Y-601573D01*
X781354Y-602132D01*
X770940Y-600913D01*
X762254Y-597712D01*
X755040Y-593039D01*
X748893Y-587400D01*
X741781Y-597052D01*
X745185Y-600354D01*
X748944Y-603504D01*
X753211Y-606399D01*
X757936Y-609041D01*
X763168Y-611225D01*
X769010Y-612851D01*
X775462Y-613968D01*
X782675Y-614324D01*
X788009Y-613968D01*
X793292Y-613003D01*
X798322Y-611327D01*
X803198Y-609041D01*
X807669Y-606145D01*
X811834Y-602691D01*
X815492Y-598576D01*
X818692Y-593953D01*
X821283Y-588721D01*
X823214Y-582980D01*
X824382Y-576681D01*
X824788Y-569874D01*
X824433Y-563016D01*
X823417Y-556818D01*
X821740Y-551281D01*
X819454Y-546303D01*
X816660Y-541985D01*
X813358Y-538276D01*
X809599Y-535178D01*
X805434Y-532638D01*
X800912Y-530707D01*
X796086Y-529336D01*
X791006Y-528472D01*
X785672Y-528218D01*
X779932Y-528624D01*
X774801Y-529793D01*
X769975Y-531520D01*
X765352Y-533806D01*
X769213Y-494436D01*
X818438Y-494436D01*
X818438Y-481990D01*
G37*
G36*
X1210665Y-481990D02*
G01*
X1210665Y-493928D01*
X1241399Y-493928D01*
X1247140Y-494131D01*
X1252524Y-494842D01*
X1257503Y-495909D01*
X1262126Y-497484D01*
X1266342Y-499414D01*
X1270203Y-501802D01*
X1273657Y-504545D01*
X1276756Y-507746D01*
X1279499Y-511301D01*
X1281887Y-515264D01*
X1283868Y-519582D01*
X1285494Y-524256D01*
X1286764Y-529285D01*
X1287627Y-534670D01*
X1288186Y-540410D01*
X1288338Y-546506D01*
X1288186Y-552602D01*
X1287627Y-558342D01*
X1286764Y-563778D01*
X1285494Y-568858D01*
X1283868Y-573633D01*
X1281887Y-578002D01*
X1279499Y-582015D01*
X1276756Y-585673D01*
X1273657Y-588873D01*
X1270203Y-591718D01*
X1266342Y-594156D01*
X1262126Y-596188D01*
X1257503Y-597763D01*
X1252524Y-598932D01*
X1247140Y-599592D01*
X1241399Y-599846D01*
X1225397Y-599846D01*
X1225397Y-493928D01*
X1210665Y-493928D01*
X1210665Y-612038D01*
X1243177Y-612038D01*
X1250340Y-611733D01*
X1257147Y-610920D01*
X1263446Y-609498D01*
X1269339Y-607568D01*
X1274724Y-605078D01*
X1279702Y-602081D01*
X1284173Y-598576D01*
X1288237Y-594614D01*
X1291793Y-590143D01*
X1294942Y-585216D01*
X1297584Y-579831D01*
X1299718Y-573989D01*
X1301445Y-567740D01*
X1302613Y-561086D01*
X1303375Y-553974D01*
X1303629Y-546506D01*
X1303375Y-539038D01*
X1302613Y-531977D01*
X1301394Y-525373D01*
X1299718Y-519176D01*
X1297533Y-513435D01*
X1294892Y-508101D01*
X1291793Y-503275D01*
X1288186Y-498906D01*
X1284122Y-495046D01*
X1279550Y-491642D01*
X1274572Y-488696D01*
X1269085Y-486308D01*
X1263192Y-484428D01*
X1256792Y-483108D01*
X1249934Y-482244D01*
X1242669Y-481990D01*
G37*
G36*
X1460093Y-481990D02*
G01*
X1454607Y-484784D01*
X1448460Y-487222D01*
X1441551Y-489204D01*
X1433677Y-490880D01*
X1433677Y-500278D01*
X1456486Y-500278D01*
X1456486Y-599846D01*
X1427581Y-599846D01*
X1427581Y-612038D01*
X1497431Y-612038D01*
X1497431Y-599846D01*
X1471015Y-599846D01*
X1471015Y-481990D01*
G37*
G36*
X882243Y-556666D02*
G01*
X882243Y-568096D01*
X927201Y-568096D01*
X927201Y-556666D01*
G37*
D10*
X1282225Y-3460739D02*
G01*
X1492283Y-3320785D01*
X1282225Y-3320785D02*
G01*
X1492283Y-3460739D01*
X1282225Y-3254745D02*
G01*
X1492283Y-3254745D01*
X1282225Y-3108695D02*
G01*
X1492283Y-3188705D01*
X1282225Y-3108695D02*
G01*
X1492283Y-3028685D01*
X1422179Y-3158733D02*
G01*
X1422179Y-3058657D01*
X1282225Y-2902701D02*
G01*
X1292131Y-2922767D01*
X1312197Y-2942833D01*
X1332263Y-2952739D01*
X1362235Y-2962645D01*
X1412273Y-2962645D01*
X1442245Y-2952739D01*
X1462311Y-2942833D01*
X1482123Y-2922767D01*
X1492283Y-2902701D01*
X1492283Y-2862823D01*
X1482123Y-2842757D01*
X1462311Y-2822691D01*
X1442245Y-2812785D01*
X1412273Y-2802625D01*
X1362235Y-2802625D01*
X1332263Y-2812785D01*
X1312197Y-2822691D01*
X1292131Y-2842757D01*
X1282225Y-2862823D01*
X1282225Y-2902701D01*
D11*
X-655487Y639470D02*
G01*
X-655487Y541426D01*
X-704509Y590448D02*
G01*
X-606211Y590448D01*
X-23594Y582630D02*
G01*
X74703Y582630D01*
X1123221Y-3809481D02*
G01*
X1123221Y-3891269D01*
X1128555Y-3907779D01*
X1139477Y-3918701D01*
X1155987Y-3924035D01*
X1166909Y-3924035D01*
X1183165Y-3918701D01*
X1194087Y-3907779D01*
X1199675Y-3891269D01*
X1199675Y-3809481D01*
X1311943Y-3825991D02*
G01*
X1301021Y-3815069D01*
X1284765Y-3809481D01*
X1262921Y-3809481D01*
X1246411Y-3815069D01*
X1235489Y-3825991D01*
X1235489Y-3836913D01*
X1241077Y-3847835D01*
X1246411Y-3853169D01*
X1257333Y-3858757D01*
X1290099Y-3869425D01*
X1301021Y-3875013D01*
X1306609Y-3880347D01*
X1311943Y-3891269D01*
X1311943Y-3907779D01*
X1301021Y-3918701D01*
X1284765Y-3924035D01*
X1262921Y-3924035D01*
X1246411Y-3918701D01*
X1235489Y-3907779D01*
X1348011Y-3809481D02*
G01*
X1348011Y-3924035D01*
X1348011Y-3809481D02*
G01*
X1397033Y-3809481D01*
X1413289Y-3815069D01*
X1418877Y-3820403D01*
X1424211Y-3831325D01*
X1424211Y-3842247D01*
X1418877Y-3853169D01*
X1413289Y-3858757D01*
X1397033Y-3864091D01*
X1348011Y-3864091D02*
G01*
X1397033Y-3864091D01*
X1413289Y-3869425D01*
X1418877Y-3875013D01*
X1424211Y-3885935D01*
X1424211Y-3902191D01*
X1418877Y-3913113D01*
X1413289Y-3918701D01*
X1397033Y-3924035D01*
X1348011Y-3924035D01*
X1460279Y-3875013D02*
G01*
X1558577Y-3875013D01*
X1676433Y-3836913D02*
G01*
X1670845Y-3825991D01*
X1659923Y-3815069D01*
X1649001Y-3809481D01*
X1627157Y-3809481D01*
X1616235Y-3815069D01*
X1605313Y-3825991D01*
X1599979Y-3836913D01*
X1594391Y-3853169D01*
X1594391Y-3880347D01*
X1599979Y-3896857D01*
X1605313Y-3907779D01*
X1616235Y-3918701D01*
X1627157Y-3924035D01*
X1649001Y-3924035D01*
X1659923Y-3918701D01*
X1670845Y-3907779D01*
X1676433Y-3896857D01*
D12*
X3213841Y440938D02*
G01*
X3213841Y490976D01*
X3250163Y463544D01*
X3250163Y477260D01*
X3254735Y486404D01*
X3259307Y490976D01*
X3272769Y495548D01*
X3281913Y495548D01*
X3295629Y490976D01*
X3304773Y481832D01*
X3309345Y468116D01*
X3309345Y454400D01*
X3304773Y440938D01*
X3300201Y436366D01*
X3291057Y431794D01*
X3245591Y525520D02*
G01*
X3309345Y552698D01*
X3245591Y579876D02*
G01*
X3309345Y552698D01*
X3213841Y618992D02*
G01*
X3213841Y669030D01*
X3250163Y641852D01*
X3250163Y655314D01*
X3254735Y664458D01*
X3259307Y669030D01*
X3272769Y673602D01*
X3281913Y673602D01*
X3295629Y669030D01*
X3304773Y659886D01*
X3309345Y646424D01*
X3309345Y632708D01*
X3304773Y618992D01*
X3300201Y614420D01*
X3291057Y610102D01*
X2969882Y499866D02*
G01*
X2960738Y495294D01*
X2951594Y486150D01*
X2947022Y477006D01*
X2947022Y458972D01*
X2951594Y449828D01*
X2960738Y440684D01*
X2969882Y436112D01*
X2983344Y431794D01*
X3006204Y431794D01*
X3019920Y436112D01*
X3028810Y440684D01*
X3037954Y449828D01*
X3042526Y458972D01*
X3042526Y477006D01*
X3037954Y486150D01*
X3028810Y495294D01*
X3019920Y499866D01*
X3006204Y499866D01*
X3006204Y477006D02*
G01*
X3006204Y499866D01*
X2947022Y529838D02*
G01*
X3042526Y529838D01*
X2947022Y529838D02*
G01*
X3042526Y593592D01*
X2947022Y593592D02*
G01*
X3042526Y593592D01*
X2947022Y623564D02*
G01*
X3042526Y623564D01*
X2947022Y623564D02*
G01*
X2947022Y655314D01*
X2951594Y669030D01*
X2960738Y677920D01*
X2969882Y682492D01*
X2983344Y687064D01*
X3006204Y687064D01*
X3019920Y682492D01*
X3028810Y677920D01*
X3037954Y669030D01*
X3042526Y655314D01*
X3042526Y623564D01*
X2694134Y495551D02*
G01*
X2684990Y486407D01*
X2680418Y472691D01*
X2680418Y454403D01*
X2684990Y440941D01*
X2694134Y431797D01*
X2703024Y431797D01*
X2712168Y436369D01*
X2716740Y440941D01*
X2721312Y450085D01*
X2730456Y477263D01*
X2735028Y486407D01*
X2739600Y490979D01*
X2748490Y495551D01*
X2762206Y495551D01*
X2771350Y486407D01*
X2775922Y472691D01*
X2775922Y454403D01*
X2771350Y440941D01*
X2762206Y431797D01*
X2703024Y593595D02*
G01*
X2694134Y589023D01*
X2684990Y579879D01*
X2680418Y570989D01*
X2680418Y552701D01*
X2684990Y543557D01*
X2694134Y534413D01*
X2703024Y530095D01*
X2716740Y525523D01*
X2739600Y525523D01*
X2753062Y530095D01*
X2762206Y534413D01*
X2771350Y543557D01*
X2775922Y552701D01*
X2775922Y570989D01*
X2771350Y579879D01*
X2762206Y589023D01*
X2753062Y593595D01*
X2680418Y623567D02*
G01*
X2775922Y623567D01*
X2775922Y623567D02*
G01*
X2775922Y678177D01*
X2414729Y495551D02*
G01*
X2405585Y486407D01*
X2401013Y472691D01*
X2401013Y454403D01*
X2405585Y440941D01*
X2414729Y431797D01*
X2423619Y431797D01*
X2432763Y436369D01*
X2437335Y440941D01*
X2441907Y450085D01*
X2451051Y477263D01*
X2455623Y486407D01*
X2460195Y490979D01*
X2469085Y495551D01*
X2482801Y495551D01*
X2491945Y486407D01*
X2496517Y472691D01*
X2496517Y454403D01*
X2491945Y440941D01*
X2482801Y431797D01*
X2401013Y525523D02*
G01*
X2496517Y525523D01*
X2401013Y525523D02*
G01*
X2401013Y557273D01*
X2405585Y570989D01*
X2414729Y579879D01*
X2423619Y584451D01*
X2437335Y589023D01*
X2460195Y589023D01*
X2473657Y584451D01*
X2482801Y579879D01*
X2491945Y570989D01*
X2496517Y557273D01*
X2496517Y525523D01*
X2401013Y655317D02*
G01*
X2496517Y618995D01*
X2401013Y655317D02*
G01*
X2496517Y691893D01*
X2464513Y632711D02*
G01*
X2464513Y678177D01*
D11*
X-369493Y203801D02*
G01*
X-426389Y203801D01*
X-432231Y152493D01*
X-426389Y158335D01*
X-409371Y163923D01*
X-392353Y163923D01*
X-375335Y158335D01*
X-363905Y146905D01*
X-358317Y129887D01*
X-358317Y118457D01*
X-363905Y101439D01*
X-375335Y90009D01*
X-392353Y84421D01*
X-409371Y84421D01*
X-426389Y90009D01*
X-432231Y95851D01*
X-437819Y107281D01*
X-320725Y203801D02*
G01*
X-275259Y84421D01*
X-229793Y203801D02*
G01*
X-275259Y84421D01*
X2209883Y-534543D02*
G01*
X2209883Y-677545D01*
X2261699Y-568579D02*
G01*
X2261699Y-561721D01*
X2268303Y-548005D01*
X2275161Y-541147D01*
X2288877Y-534543D01*
X2316055Y-534543D01*
X2329771Y-541147D01*
X2336629Y-548005D01*
X2343487Y-561721D01*
X2343487Y-575437D01*
X2336629Y-588898D01*
X2322913Y-609473D01*
X2254841Y-677545D01*
X2350345Y-677545D01*
X2497411Y-568579D02*
G01*
X2490807Y-554863D01*
X2477091Y-541147D01*
X2463375Y-534543D01*
X2436197Y-534543D01*
X2422481Y-541147D01*
X2408765Y-554863D01*
X2402161Y-568579D01*
X2395303Y-588898D01*
X2395303Y-623189D01*
X2402161Y-643509D01*
X2408765Y-657225D01*
X2422481Y-670687D01*
X2436197Y-677545D01*
X2463375Y-677545D01*
X2477091Y-670687D01*
X2490807Y-657225D01*
X2497411Y-643509D01*
X-514019Y609947D02*
G01*
X-459409Y466691D01*
X-404799Y609947D02*
G01*
X-459409Y466691D01*
X-257733Y575911D02*
G01*
X-264337Y589627D01*
X-278053Y603089D01*
X-291769Y609947D01*
X-318947Y609947D01*
X-332663Y603089D01*
X-346379Y589627D01*
X-352983Y575911D01*
X-359841Y555337D01*
X-359841Y521301D01*
X-352983Y500981D01*
X-346379Y487265D01*
X-332663Y473549D01*
X-318947Y466691D01*
X-291769Y466691D01*
X-278053Y473549D01*
X-264337Y487265D01*
X-257733Y500981D01*
X-110413Y575911D02*
G01*
X-117271Y589627D01*
X-130733Y603089D01*
X-144449Y609947D01*
X-171627Y609947D01*
X-185343Y603089D01*
X-199059Y589627D01*
X-205917Y575911D01*
X-212521Y555337D01*
X-212521Y521301D01*
X-205917Y500981D01*
X-199059Y487265D01*
X-185343Y473549D01*
X-171627Y466691D01*
X-144449Y466691D01*
X-130733Y473549D01*
X-117271Y487265D01*
X-110413Y500981D01*
D12*
X1962939Y-3477430D02*
G01*
X1972083Y-3472858D01*
X1985545Y-3459396D01*
X1985545Y-3554900D01*
X1946943Y-3221652D02*
G01*
X1946943Y-3217080D01*
X1951515Y-3208190D01*
X1956087Y-3203618D01*
X1964977Y-3199046D01*
X1983265Y-3199046D01*
X1992409Y-3203618D01*
X1996981Y-3208190D01*
X2001553Y-3217080D01*
X2001553Y-3226224D01*
X1996981Y-3235368D01*
X1987837Y-3249084D01*
X1942371Y-3294550D01*
X2006125Y-3294550D01*
X1951515Y-2948749D02*
G01*
X2001553Y-2948749D01*
X1974121Y-2985071D01*
X1987837Y-2985071D01*
X1996981Y-2989643D01*
X2001553Y-2994215D01*
X2006125Y-3007677D01*
X2006125Y-3016821D01*
X2001553Y-3030537D01*
X1992409Y-3039681D01*
X1978693Y-3044253D01*
X1964977Y-3044253D01*
X1951515Y-3039681D01*
X1946943Y-3035109D01*
X1942371Y-3025965D01*
X1985672Y-2698452D02*
G01*
X1940206Y-2761952D01*
X2008278Y-2761952D01*
X1985672Y-2698452D02*
G01*
X1985672Y-2793956D01*
X1996981Y-2448158D02*
G01*
X1951515Y-2448158D01*
X1946943Y-2489052D01*
X1951515Y-2484480D01*
X1964977Y-2479908D01*
X1978693Y-2479908D01*
X1992409Y-2484480D01*
X2001553Y-2493624D01*
X2006125Y-2507086D01*
X2006125Y-2516230D01*
X2001553Y-2529946D01*
X1992409Y-2539090D01*
X1978693Y-2543662D01*
X1964977Y-2543662D01*
X1951515Y-2539090D01*
X1946943Y-2534518D01*
X1942371Y-2525374D01*
X1999305Y-2211362D02*
G01*
X1994733Y-2202472D01*
X1981017Y-2197900D01*
X1971873Y-2197900D01*
X1958411Y-2202472D01*
X1949267Y-2215934D01*
X1944695Y-2238794D01*
X1944695Y-2261400D01*
X1949267Y-2279688D01*
X1958411Y-2288832D01*
X1971873Y-2293150D01*
X1976445Y-2293150D01*
X1990161Y-2288832D01*
X1999305Y-2279688D01*
X2003623Y-2265972D01*
X2003623Y-2261400D01*
X1999305Y-2247684D01*
X1990161Y-2238794D01*
X1976445Y-2234222D01*
X1971873Y-2234222D01*
X1958411Y-2238794D01*
X1949267Y-2247684D01*
X1944695Y-2261400D01*
X901263Y-2197900D02*
G01*
X855797Y-2293150D01*
X837509Y-2197900D02*
G01*
X901263Y-2197900D01*
X850044Y-3715512D02*
G01*
X804578Y-3715512D01*
X800006Y-3756406D01*
X804578Y-3751834D01*
X818040Y-3747262D01*
X831756Y-3747262D01*
X845472Y-3751834D01*
X854616Y-3760978D01*
X859188Y-3774440D01*
X859188Y-3783584D01*
X854616Y-3797300D01*
X845472Y-3806444D01*
X831756Y-3811015D01*
X818040Y-3811015D01*
X804578Y-3806444D01*
X800006Y-3801872D01*
X795434Y-3792728D01*
X889160Y-3747262D02*
G01*
X916338Y-3811015D01*
X943516Y-3747262D02*
G01*
X916338Y-3811015D01*
X828073Y-3462020D02*
G01*
X823501Y-3452876D01*
X814357Y-3443732D01*
X805213Y-3439160D01*
X787179Y-3439160D01*
X778035Y-3443732D01*
X768891Y-3452876D01*
X764319Y-3462020D01*
X760001Y-3475482D01*
X760001Y-3498342D01*
X764319Y-3512057D01*
X768891Y-3520948D01*
X778035Y-3530092D01*
X787179Y-3534664D01*
X805213Y-3534664D01*
X814357Y-3530092D01*
X823501Y-3520948D01*
X828073Y-3512057D01*
X828073Y-3498342D01*
X805213Y-3498342D02*
G01*
X828073Y-3498342D01*
X858045Y-3439160D02*
G01*
X858045Y-3534664D01*
X858045Y-3439160D02*
G01*
X921799Y-3534664D01*
X921799Y-3439160D02*
G01*
X921799Y-3534664D01*
X951771Y-3439160D02*
G01*
X951771Y-3534664D01*
X951771Y-3439160D02*
G01*
X983521Y-3439160D01*
X997237Y-3443732D01*
X1006127Y-3452876D01*
X1010699Y-3462020D01*
X1015271Y-3475482D01*
X1015271Y-3498342D01*
X1010699Y-3512057D01*
X1006127Y-3520948D01*
X997237Y-3530092D01*
X983521Y-3534664D01*
X951771Y-3534664D01*
X757715Y-3199043D02*
G01*
X807753Y-3199043D01*
X780321Y-3235365D01*
X794037Y-3235365D01*
X803181Y-3239937D01*
X807753Y-3244509D01*
X812325Y-3257971D01*
X812325Y-3267115D01*
X807753Y-3280831D01*
X798609Y-3289975D01*
X784893Y-3294547D01*
X771177Y-3294547D01*
X757715Y-3289975D01*
X753143Y-3285403D01*
X748571Y-3276259D01*
X842297Y-3230793D02*
G01*
X869475Y-3294547D01*
X896653Y-3230793D02*
G01*
X869475Y-3294547D01*
X935769Y-3199043D02*
G01*
X985807Y-3199043D01*
X958629Y-3235365D01*
X972091Y-3235365D01*
X981235Y-3239937D01*
X985807Y-3244509D01*
X990379Y-3257971D01*
X990379Y-3267115D01*
X985807Y-3280831D01*
X976663Y-3289975D01*
X963201Y-3294547D01*
X949485Y-3294547D01*
X935769Y-3289975D01*
X931197Y-3285403D01*
X926879Y-3276259D01*
X811309Y-2966783D02*
G01*
X820453Y-2962211D01*
X833915Y-2948749D01*
X833915Y-3044253D01*
X891319Y-2948749D02*
G01*
X877603Y-2953321D01*
X868459Y-2966783D01*
X864141Y-2989643D01*
X864141Y-3003105D01*
X868459Y-3025965D01*
X877603Y-3039681D01*
X891319Y-3044253D01*
X900463Y-3044253D01*
X913925Y-3039681D01*
X923069Y-3025965D01*
X927641Y-3003105D01*
X927641Y-2989643D01*
X923069Y-2966783D01*
X913925Y-2953321D01*
X900463Y-2948749D01*
X891319Y-2948749D01*
X899066Y-2730205D02*
G01*
X894494Y-2743921D01*
X885350Y-2752811D01*
X871634Y-2757383D01*
X867062Y-2757383D01*
X853600Y-2752811D01*
X844456Y-2743921D01*
X839884Y-2730205D01*
X839884Y-2725633D01*
X844456Y-2711917D01*
X853600Y-2703027D01*
X867062Y-2698455D01*
X871634Y-2698455D01*
X885350Y-2703027D01*
X894494Y-2711917D01*
X899066Y-2730205D01*
X899066Y-2752811D01*
X894494Y-2775671D01*
X885350Y-2789387D01*
X871634Y-2793959D01*
X862490Y-2793959D01*
X849028Y-2789387D01*
X844456Y-2780243D01*
X860206Y-2448156D02*
G01*
X846744Y-2452728D01*
X842172Y-2461618D01*
X842172Y-2470762D01*
X846744Y-2479906D01*
X855888Y-2484478D01*
X873922Y-2489050D01*
X887638Y-2493622D01*
X896782Y-2502512D01*
X901354Y-2511656D01*
X901354Y-2525372D01*
X896782Y-2534516D01*
X892210Y-2539088D01*
X878494Y-2543660D01*
X860206Y-2543660D01*
X846744Y-2539088D01*
X842172Y-2534516D01*
X837600Y-2525372D01*
X837600Y-2511656D01*
X842172Y-2502512D01*
X851316Y-2493622D01*
X864778Y-2489050D01*
X883066Y-2484478D01*
X892210Y-2479906D01*
X896782Y-2470762D01*
X896782Y-2461618D01*
X892210Y-2452728D01*
X878494Y-2448156D01*
X860206Y-2448156D01*
X1969549Y-3715512D02*
G01*
X1956087Y-3720084D01*
X1946943Y-3733546D01*
X1942371Y-3756406D01*
X1942371Y-3769868D01*
X1946943Y-3792728D01*
X1956087Y-3806444D01*
X1969549Y-3811015D01*
X1978693Y-3811015D01*
X1992409Y-3806444D01*
X2001553Y-3792728D01*
X2006125Y-3769868D01*
X2006125Y-3756406D01*
X2001553Y-3733546D01*
X1992409Y-3720084D01*
X1978693Y-3715512D01*
X1969549Y-3715512D01*
D13*
X2236271Y-3968750D02*
G01*
X547171Y-3968750D01*
X547171Y-2025650D01*
X2236271Y-2025650D01*
X2236271Y-3968750D01*
X1728271Y-4273550D02*
G01*
X1029771Y-4273550D01*
X1029771Y-3765550D01*
X1728271Y-3765550D01*
X1728271Y-4273550D01*
X1626671Y-2711450D02*
G01*
X1131371Y-2711450D01*
X1131371Y-2343150D01*
X1626671Y-2343150D01*
X1626671Y-2711450D01*
X-886180Y721453D02*
G01*
X180619Y721453D01*
X180619Y-359798D01*
X-886180Y-359798D01*
X-886180Y721453D01*
X2070100Y747158D02*
G01*
X3543300Y747158D01*
X3543300Y-797948D01*
X2070100Y-797948D01*
X2070100Y747158D01*
M02*
